<svg width="32" height="33" viewBox="0 0 32 33" fill="none" xmlns="http://www.w3.org/2000/svg">
<g id="Logo">
<path id="Vector" d="M14.147 0.480221C3.95925 1.76695 -2.49037 12.1054 0.918554 21.703C4.06526 30.5653 14.0633 34.8154 22.7 30.9608L23.3416 30.6767V27.9417C23.3416 26.4433 23.3137 25.2122 23.2746 25.2122C23.2412 25.2122 22.7893 25.4908 22.276 25.8305C14.3032 31.1279 3.65797 24.2709 5.03605 14.729C6.20211 6.60752 15.804 2.41868 22.5159 7.10328C22.912 7.38179 23.2635 7.61017 23.2914 7.61017C23.3193 7.61017 23.3416 6.38471 23.3416 4.88074V2.15687L22.8116 1.8895C20.5631 0.753164 16.8139 0.140434 14.147 0.480221Z" fill="#233876"/>
<path id="Vector_2" d="M27.4814 16.4112V27.6074L28.0394 26.9947C33.3006 21.2239 33.3229 11.604 28.0896 5.88334L27.4814 5.21491V16.4112Z" fill="#233876"/>
<path id="Vector_3" d="M14.387 9.45406C9.03087 10.7519 7.22877 17.4753 11.1733 21.4357C15.3299 25.6079 22.3263 23.2683 23.2413 17.3973C24.0112 12.4509 19.3302 8.25645 14.387 9.45406Z" fill="#233876"/>
</g>
</svg>
